<svg version="1.0" xmlns="http://www.w3.org/2000/svg"
     viewBox="0 0 200.000000 99.000000"
     preserveAspectRatio="xMidYMid meet">

    <g transform="translate(0.000000,99.000000) scale(0.100000,-0.100000)"
       fill="currentColor" stroke="none" class="dark:text-white text-black">
        <path d="M494 958 c-10 -16 -74 -48 -98 -48 -8 0 -60 -23 -115 -51 -108 -55
-199 -137 -239 -214 -73 -143 -40 -309 87 -435 271 -271 842 -276 1112 -10 36
36 76 84 87 106 21 41 21 42 2 47 -14 3 -22 -3 -31 -26 -19 -45 -115 -138
-185 -179 -357 -208 -898 -104 -1043 202 -38 80 -37 192 2 272 53 109 183 203
357 259 86 28 101 41 82 75 -8 14 -11 15 -18 2z" fill="blue"/>
        <path d="M590 920 c-11 -11 -20 -31 -20 -45 0 -25 34 -65 56 -65 6 0 22 -9 35
-20 24 -20 24 -20 4 -35 -11 -9 -26 -13 -35 -9 -41 18 -60 16 -60 -4 0 -52
120 -52 149 0 22 38 3 73 -54 100 -66 32 -54 74 15 49 26 -8 32 -8 37 6 16 41
-90 60 -127 23z"/>
        <path d="M780 827 l0 -115 61 -4 c39 -2 64 1 71 9 16 20 -1 33 -42 33 l-39 0
-3 93 c-3 87 -4 92 -25 95 -23 3 -23 2 -23 -111z"/>
        <path d="M1033 928 c-18 -22 -84 -209 -78 -219 12 -19 37 -8 48 21 10 27 16
30 54 30 37 0 45 -4 53 -24 11 -29 23 -38 43 -30 13 5 10 20 -19 101 -19 52
-39 104 -45 114 -11 22 -42 25 -56 7z m43 -93 c12 -35 12 -35 -18 -35 -23 0
-29 4 -24 16 3 9 9 27 12 40 8 30 14 25 30 -21z"/>
        <path d="M1214 927 c-2 -7 -3 -60 -2 -118 2 -84 6 -104 18 -104 12 0 16 18 20
85 l5 85 48 -82 c48 -82 64 -97 92 -87 12 5 15 28 15 121 0 113 0 114 -22 111
-22 -3 -23 -8 -23 -81 0 -42 -2 -77 -5 -77 -3 0 -18 25 -34 56 -16 30 -38 66
-48 80 -21 26 -56 32 -64 11z"/>
        <path d="M1481 926 c-8 -9 -11 -48 -9 -112 3 -96 4 -99 29 -108 38 -13 95 1
130 32 59 53 43 166 -27 192 -38 15 -110 12 -123 -4z m106 -41 c27 -19 38 -67
22 -97 -16 -30 -28 -38 -61 -38 l-28 0 0 75 c0 71 1 75 23 75 12 0 32 -7 44
-15z"/>
        <path d="M477 873 c-11 -11 -8 -161 3 -168 24 -15 40 17 40 80 0 35 -3 70 -6
79 -6 16 -26 21 -37 9z"/>
        <path d="M480 600 c-11 -11 -20 -31 -20 -45 0 -25 34 -65 56 -65 6 0 22 -9 35
-19 23 -19 23 -21 7 -37 -14 -15 -21 -16 -43 -6 -37 17 -55 15 -55 -6 0 -22
38 -42 78 -42 59 0 98 60 69 104 -8 12 -34 30 -56 41 -27 12 -41 24 -39 34 4
19 46 27 60 13 13 -13 38 -4 38 14 0 36 -97 47 -130 14z"/>
        <path d="M674 607 c-2 -7 -3 -60 -2 -118 l3 -104 58 -3 c35 -2 64 2 73 9 23
19 -3 39 -52 39 -40 0 -44 2 -44 24 0 22 5 25 43 28 34 2 42 7 42 23 0 16 -8
21 -43 23 -38 3 -43 6 -40 25 3 19 10 22 51 25 39 3 47 6 47 23 0 17 -7 19
-65 19 -45 0 -67 -4 -71 -13z"/>
        <path d="M871 606 c-8 -9 -11 -50 -9 -117 3 -96 4 -104 23 -104 16 0 21 8 23
38 4 47 24 48 54 2 13 -19 31 -38 42 -41 32 -11 37 10 10 50 -25 36 -25 38 -8
57 26 29 24 87 -5 110 -28 23 -113 26 -130 5z m93 -42 c9 -8 16 -18 16 -21 0
-14 -35 -43 -52 -43 -14 0 -18 8 -18 40 0 33 3 40 19 40 11 0 27 -7 35 -16z"/>
        <path d="M1060 612 c0 -19 73 -208 85 -221 28 -30 51 -3 89 102 42 119 44 129
14 125 -17 -2 -27 -19 -47 -80 -14 -42 -29 -79 -32 -82 -3 -3 -16 27 -28 67
-13 39 -28 78 -33 85 -12 14 -48 17 -48 4z"/>
        <path d="M1322 543 c3 -70 5 -78 23 -78 18 0 20 7 20 75 0 71 -1 75 -23 78
-22 3 -23 2 -20 -75z"/>
        <path d="M1464 602 c-32 -25 -44 -55 -44 -106 0 -63 38 -106 100 -113 36 -4
51 -1 70 15 19 16 22 23 13 33 -9 9 -19 9 -43 -1 -28 -11 -34 -11 -58 7 -36
27 -43 92 -13 122 22 22 56 27 81 11 9 -5 19 -5 27 2 11 9 10 14 -3 29 -22 25
-100 25 -130 1z"/>
        <path d="M1657 614 c-4 -4 -7 -53 -7 -109 0 -122 4 -127 87 -123 50 3 58 6 58
23 0 17 -8 20 -47 23 -43 3 -48 5 -48 28 0 21 5 24 33 24 37 0 58 15 50 36 -3
9 -20 14 -44 14 -35 0 -39 3 -39 25 0 23 3 25 51 25 43 0 50 3 47 18 -3 14
-16 18 -69 20 -35 2 -68 0 -72 -4z"/>

        <path d="M1861 594 c-12 -15 -21 -33 -21 -41 0 -18 37 -53 78 -75 18 -9 32
-24 32 -32 0 -21 -33 -29 -64 -15 -21 10 -29 10 -39 0 -9 -10 -7 -16 12 -32
30 -25 82 -24 115 2 49 38 28 95 -49 130 -16 8 -30 21 -30 29 0 15 40 19 74 9
19 -5 27 31 9 42 -7 5 -32 9 -55 9 -33 0 -46 -5 -62 -26z"/><g fill="blue">
        <path d="M474 266 c-15 -24 -15 -28 0 -52 13 -18 24 -24 44 -22 32 4 32 22 -1
23 -32 0 -32 50 0 50 31 1 30 19 -1 23 -18 2 -30 -4 -42 -22z"/>
        <path d="M570 270 c-25 -47 26 -100 69 -73 20 13 26 60 10 79 -17 21 -66 18
-79 -6z m65 -30 c0 -29 -32 -41 -41 -16 -9 24 4 48 23 44 12 -2 18 -12 18 -28z"/>
        <path d="M730 240 c0 -49 1 -50 30 -50 34 0 40 15 10 23 -15 4 -20 14 -20 41
0 20 -4 36 -10 36 -5 0 -10 -22 -10 -50z"/>
        <path d="M810 280 c0 -5 4 -10 9 -10 6 0 11 -17 13 -37 4 -52 28 -56 28 -4 0
30 4 41 15 41 8 0 15 5 15 10 0 6 -18 10 -40 10 -22 0 -40 -4 -40 -10z"/>
        <path d="M910 240 c0 -46 2 -50 24 -50 28 0 56 24 56 46 0 32 -21 54 -50 54
-29 0 -30 -1 -30 -50z m50 15 c10 -12 10 -18 0 -30 -19 -23 -30 -18 -30 15 0
33 11 38 30 15z"/>
    </g>

        <path d="M686 213 c-11 -11 -6 -23 9 -23 8 0 15 4 15 9 0 13 -16 22 -24 14z"/>
        <path d="M1016 211 c-4 -7 -5 -15 -2 -18 9 -9 19 4 14 18 -4 11 -6 11 -12 0z"/>
    </g>
</svg>
